# File created by Blade
# Date/Time:  Tue Jan 27 19:38:24 2015
#---------------------------------------------------------
:version 1.10
:name HOM
:units
  mass 1.0
  length 1.000000
  angle deg
:documentation
     Acclaim Skeleton File
:root
   axis xyz
   order TX TY TZ RX RY RZ
   position 0.000000 0.000000 0.000000
   orientation 0 0 0
:bonedata
   begin
      id 1
      name Spine_dum
      direction 0.000000 1.000000 0.000000
      length 6.116652
      axis 0.0 0.0 0.0 xyz
   end
   begin
      id 2
      name LeftUpLeg_dum
      direction 1.000000 0.000000 0.000000
      length 4.711765
      axis 0.0 0.0 0.0 xyz
   end
   begin
      id 3
      name RightUpLeg_dum
      direction -1.000000 0.000000 0.000000
      length 4.711765
      axis 0.0 0.0 0.0 xyz
   end
   begin
      id 4
      name Spine
      direction 0.000000 1.000000 0.000000
      length 0.000000
      axis 0.0 0.0 0.0 xyz
      dof rx ry rz
   end
   begin
      id 5
      name Spine_dum1
      direction 0.000000 1.000000 0.000000
      length 15.225563
      axis 0.0 0.0 0.0 xyz
   end
   begin
      id 6
      name Spine_dum2
      direction 0.000000 1.000000 0.000000
      length 8.977654
      axis 0.0 0.0 0.0 xyz
   end
   begin
      id 7
      name Spine_dum3
      direction 0.000000 1.000000 0.000000
      length 8.977654
      axis 0.0 0.0 0.0 xyz
   end
   begin
      id 8
      name Head
      direction 0.000000 1.000000 0.000000
      length 4.527550
      axis 0.0 0.0 0.0 xyz
      dof rx ry rz
   end
   begin
      id 9
      name LeftShoulder
      direction 1.000000 0.000000 0.000000
      length 7.110130
      axis 0.0 0.0 -90.0 xyz
      dof rx ry rz
   end
   begin
      id 10
      name LeftArm
      direction 1.000000 0.000000 0.000000
      length 10.398341
      axis 0.0 0.0 -90.0 xyz
      dof rx ry rz
   end
   begin
      id 11
      name LeftForeArm
      direction 1.000000 0.000000 0.000000
      length 8.888997
      axis 0.0 0.0 -90.0 xyz
      dof ry rz rx
   end
   begin
      id 12
      name LeftHand
      direction 0.000000 0.000000 0.000000
      length 0.000000
      axis 0.0 0.0 -90.0 xyz
      dof rx ry rz
   end
   begin
      id 13
      name LeftHand_dum1
      direction 0.000000 0.000000 0.000000
      length 0.000000
      axis 0.0 0.0 -90.0 xyz
   end
   begin
      id 14
      name LeftHand_dum2
      direction 1.000000 0.000000 0.000000
      length 3.937000
      axis 0.0 0.0 -90.0 xyz
   end
   begin
      id 15
      name LeftHandThumb1
      direction 0.000000 0.000000 1.000000
      length 3.937000
      axis 0.0 0.0 -90.0 xyz
      dof rx rz ry
   end
   begin
      id 16
      name RightShoulder
      direction -1.000000 0.000000 0.000000
      length 7.110130
      axis 0.0 0.0 90.0 xyz
      dof rx ry rz
   end
   begin
      id 17
      name RightArm
      direction -1.000000 0.000000 0.000000
      length 10.398341
      axis 0.0 0.0 90.0 xyz
      dof rx ry rz
   end
   begin
      id 18
      name RightForeArm
      direction -1.000000 0.000000 0.000000
      length 8.888997
      axis 0.0 0.0 90.0 xyz
      dof ry rz rx
   end
   begin
      id 19
      name RightHand
      direction 0.000000 0.000000 0.000000
      length 0.000000
      axis 0.0 0.0 90.0 xyz
      dof rx ry rz
   end
   begin
      id 20
      name RightHand_dum1
      direction 0.000000 0.000000 0.000000
      length 0.000000
      axis 0.0 0.0 90.0 xyz
   end
   begin
      id 21
      name RightHand_dum2
      direction -1.000000 0.000000 0.000000
      length 3.937000
      axis 0.0 0.0 90.0 xyz
   end
   begin
      id 22
      name RightHandThumb1
      direction 0.000000 0.000000 1.000000
      length 3.937000
      axis 0.0 0.0 90.0 xyz
      dof rx rz ry
   end
   begin
      id 23
      name LeftUpLeg
      direction 0.000000 -1.000000 0.000000
      length 15.510451
      axis 0.0 0.0 0.0 xyz
      dof rx ry rz
   end
   begin
      id 24
      name LeftLeg
      direction 0.000000 -1.000000 0.000000
      length 14.858061
      axis 0.0 0.0 0.0 xyz
      dof rx ry rz
   end
   begin
      id 25
      name LeftFoot
      direction 0.000000 -0.258819 0.965926
      length 5.128852
      axis 15.0 0.0 0.0 xyz
      dof rx ry rz
   end
   begin
      id 26
      name LeftToeBase
      direction 0.000000 0.000000 1.000000
      length 2.952750
      axis 0.0 0.0 0.0 xyz
      dof rx ry rz
   end
   begin
      id 27
      name RightUpLeg
      direction 0.000000 -1.000000 0.000000
      length 15.510451
      axis 0.0 0.0 0.0 xyz
      dof rx ry rz
   end
   begin
      id 28
      name RightLeg
      direction 0.000000 -1.000000 0.000000
      length 14.858061
      axis 0.0 0.0 0.0 xyz
      dof rx ry rz
   end
   begin
      id 29
      name RightFoot
      direction 0.000000 -0.258819 0.965926
      length 5.128852
      axis 15.0 0.0 0.0 xyz
      dof rx ry rz
   end
   begin
      id 30
      name RightToeBase
      direction 0.000000 0.000000 1.000000
      length 2.952750
      axis 0.0 0.0 0.0 xyz
      dof rx ry rz
   end
:hierarchy
   begin
      root Spine_dum LeftUpLeg_dum RightUpLeg_dum
      Spine_dum Spine
      LeftUpLeg_dum LeftUpLeg
      RightUpLeg_dum RightUpLeg
      Spine Spine_dum1 Spine_dum2 Spine_dum3
      Spine_dum1 Head
      Spine_dum2 LeftShoulder
      Spine_dum3 RightShoulder
      LeftShoulder LeftArm
      LeftArm LeftForeArm
      LeftForeArm LeftHand
      LeftHand LeftHand_dum1 LeftHand_dum2
      LeftHand_dum1 LeftHandThumb1
      RightShoulder RightArm
      RightArm RightForeArm
      RightForeArm RightHand
      RightHand RightHand_dum1 RightHand_dum2
      RightHand_dum1 RightHandThumb1
      LeftUpLeg LeftLeg
      LeftLeg LeftFoot
      LeftFoot LeftToeBase
      RightUpLeg RightLeg
      RightLeg RightFoot
      RightFoot RightToeBase
   end

# File created by Blade
# Date/Time:  Tue Jan 27 19:38:14 2015
# Frame Rate: 120.000 fps
#------------------------------------------------------
:FULLY-SPECIFIED
:DEGREES
433
root 4.557952 32.276518 1.921618 -5.758012 9.370638 1.098405
Spine 5.352982 25.815283 1.675522
Head 13.269016 -6.389952 2.352266
LeftShoulder -2.973361 -9.548136 26.030734
LeftArm -1.713757 50.756346 -102.113094
LeftForeArm 4.508245 -0.000000 15.653689
LeftHand 10.383248 -0.000000 -7.839327
LeftHandThumb1 -26.253704 0.000000 33.147579
RightShoulder 2.999495 8.193225 -25.349971
RightArm 69.092657 -60.688194 60.667439
RightForeArm 1.901756 0.000000 72.167809
RightHand 22.183426 -0.000000 4.572979
RightHandThumb1 -24.326973 -0.000000 -32.862282
LeftUpLeg 7.608325 -7.656790 -4.329684
LeftLeg 5.171903 -0.000000 -0.000000
LeftFoot -15.738258 9.652724 -20.441174
LeftToeBase 17.047339 -0.000000 -0.000000
RightUpLeg 10.328104 -13.260033 1.261723
RightLeg 1.949982 -0.000000 -0.000000
RightFoot -14.462042 -15.860610 13.271078
RightToeBase 9.447993 -0.000000 -0.000000
434
root 4.559885 32.276818 1.920990 -5.749142 9.355599 1.094512
Spine 5.339074 25.807308 1.680866
Head 13.202506 -6.423739 2.355470
LeftShoulder -2.980939 -9.563565 26.035020
LeftArm -1.747705 50.729924 -102.139983
LeftForeArm 4.513372 -0.000000 15.649025
LeftHand 10.388996 -0.000000 -7.885448
LeftHandThumb1 -26.253704 0.000000 33.147579
RightShoulder 3.019361 8.202106 -25.337759
RightArm 69.063407 -60.665550 60.681469
RightForeArm 1.887144 -0.000000 72.185415
RightHand 22.224299 0.000000 4.531955
RightHandThumb1 -24.326973 -0.000000 -32.862282
LeftUpLeg 7.600853 -7.620130 -4.323643
LeftLeg 5.169879 -0.000000 -0.000000
LeftFoot -15.729908 9.637819 -20.422183
LeftToeBase 17.016812 -0.000000 -0.000000
RightUpLeg 10.323552 -13.178442 1.277231
RightLeg 1.930559 -0.000000 -0.000000
RightFoot -14.475957 -15.907039 13.318434
RightToeBase 9.530182 -0.000000 -0.000000
435
root 4.563605 32.277107 1.921097 -5.749068 9.349907 1.094897
Spine 5.336699 25.789395 1.695415
Head 13.135422 -6.480452 2.344527
LeftShoulder -2.988054 -9.563200 26.020859
LeftArm -1.764217 50.707485 -102.137758
LeftForeArm 4.497064 0.000000 15.658985
LeftHand 10.387278 -0.000000 -7.987047
LeftHandThumb1 -26.253704 0.000000 33.147579
RightShoulder 3.031436 8.205639 -25.349451
RightArm 69.055234 -60.644605 60.691186
RightForeArm 1.877184 -0.000000 72.194234
RightHand 22.218594 -0.000000 4.511599
RightHandThumb1 -24.326973 -0.000000 -32.862282
LeftUpLeg 7.600027 -7.597457 -4.330136
LeftLeg 5.180516 -0.000000 -0.000000
LeftFoot -15.652719 9.657116 -20.229494
LeftToeBase 16.763022 -0.000000 -0.000000
RightUpLeg 10.319033 -13.235988 1.262364
RightLeg 1.934246 -0.000000 -0.000000
RightFoot -14.384015 -15.911457 13.181316
RightToeBase 9.250845 -0.000000 -0.000000
436
root 4.566756 32.277276 1.920448 -5.744513 9.343344 1.096708
Spine 5.331962 25.783296 1.704382
Head 13.042875 -6.527912 2.343515
LeftShoulder -2.989407 -9.583037 26.016278
LeftArm -1.793524 50.717701 -102.155602
LeftForeArm 4.435897 -0.000000 15.651837
LeftHand 10.466737 -0.000000 -7.925703
LeftHandThumb1 -26.253704 0.000000 33.147579
RightShoulder 3.029905 8.206624 -25.363667
RightArm 69.060148 -60.625579 60.683445
RightForeArm 1.830738 -0.000000 72.209136
RightHand 22.204669 0.000000 4.482364
RightHandThumb1 -24.326973 -0.000000 -32.862282
LeftUpLeg 7.595564 -7.616302 -4.342749
LeftLeg 5.185050 -0.000000 -0.000000
LeftFoot -15.661018 9.678100 -20.239457
LeftToeBase 16.663225 -0.000000 -0.000000
RightUpLeg 10.307723 -13.257985 1.250579
RightLeg 1.958643 -0.000000 -0.000000
RightFoot -14.455547 -15.860207 13.244801
RightToeBase 9.478496 -0.000000 -0.000000
437
root 4.568537 32.277409 1.920223 -5.738790 9.321647 1.095428
Spine 5.321116 25.797562 1.708088
Head 12.963042 -6.598372 2.358600
LeftShoulder -2.981647 -9.584594 26.009465
LeftArm -1.797524 50.728710 -102.145074
LeftForeArm 4.438975 0.000000 15.672957
LeftHand 10.391520 -0.000000 -8.045923
LeftHandThumb1 -26.253704 0.000000 33.147579
RightShoulder 3.015864 8.213386 -25.374025
RightArm 69.058791 -60.613339 60.688443
RightForeArm 1.758063 0.000000 72.212442
RightHand 22.183076 0.000000 4.452812
RightHandThumb1 -24.326973 -0.000000 -32.862282
LeftUpLeg 7.592467 -7.582113 -4.338482
LeftLeg 5.179414 -0.000000 -0.000000
LeftFoot -15.644718 9.671052 -20.227294
LeftToeBase 16.762387 -0.000000 -0.000000
RightUpLeg 10.307242 -13.249039 1.252532
RightLeg 1.932782 -0.000000 -0.000000
RightFoot -14.373841 -15.893231 13.145484
RightToeBase 9.235783 -0.000000 -0.000000
